<?xml version="1.0" encoding="utf-8"?>
<!-- Generator: Adobe Illustrator 27.5.0, SVG Export Plug-In . SVG Version: 6.00 Build 0)  -->
<svg version="1.1" id="Layer_1" xmlns="http://www.w3.org/2000/svg" xmlns:xlink="http://www.w3.org/1999/xlink" x="0px" y="0px"
	 viewBox="0 0 500 500" style="enable-background:new 0 0 500 500;" xml:space="preserve">
<path class="st0" d="M266.1,22c-8.4,0-15.2,6.8-15.2,15.2c0,0-0.2,74.1-0.3,148.2c-0.2,37.1-0.2,74.3-0.3,102.2
	c0,27.9-0.2,45.7-0.2,47.1c0,27.6-25.1,50.1-53.6,50.1c-28.3,0-50.9-22.6-50.9-50.9s22.6-50.9,50.9-50.9c0.9,0,2.9,0.3,6.2,0.8
	c8.4,1.1,15.9-5,16.9-13.2c0-0.6,0.2-1.2,0.2-1.8V205c0-8-6.2-14.6-14.3-15.2c-2.4-0.2-5.3-0.5-9-0.5c-79.7,0-144.7,65-144.7,144.7
	s65,144.7,144.7,144.7s144.7-65,144.7-144.7V196.6c22,17.6,49.7,28.9,80,28.9c4.1,0,8-0.3,11.8-0.6c7.7-0.8,13.8-7.3,13.8-15.2
	v-70.9c0-7.9-6.1-14.6-14.1-15.2c-47.7-3.5-85.8-40.7-90.8-87.9c-0.8-7.7-7.3-13.7-15-13.7C327,22,266.1,22,266.1,22z M281.3,52.3
	h34.6c11.1,50.1,50.1,88.2,100.9,98v43.6c-32.5-1.7-61.1-17.9-77.8-43.4c-4.6-7-14-9-21-4.4c-4.3,2.9-6.8,7.6-6.8,12.8v175.3
	c0,63.3-51,114.4-114.4,114.4s-114.4-51-114.4-114.4c0-60.8,47.4-109.1,107.1-112.8v33.1c-41.2,3.8-74.1,37.7-74.1,79.9
	c0,44.7,36.6,81.3,81.3,81.3c44.5,0,84-35.1,84-80.5c0,0.8,0-19.1,0.2-47.1c0-27.9,0.2-65.2,0.3-102.2
	C281.1,118.9,281.3,65.3,281.3,52.3z"/>
</svg>
